<?xml version="1.0" encoding="UTF-8"?>
<svg id="Layer_1" data-name="Layer 1" xmlns="http://www.w3.org/2000/svg" viewBox="0 0 1574.81 543.84">
  <defs>
    <style>
      .cls-1 {
        fill: none;
        stroke: #fff;
        stroke-miterlimit: 10;
        stroke-width: 40px;
      }

      .cls-2 {
        font-family: ForestEscape-Regular, 'Forest Escape';
        font-size: 400px;
      }
    </style>
  </defs>
  <text class="cls-2" transform="translate(142 387.04)"><tspan x="0" y="0">Sufna</tspan></text>
  <path id="WritePath" class="cls-1" d="m257.75,323.27c19.73,4.71,41.45-5.62,52.28-22.77s11.31-39.74,3.45-58.44c-13.85-32.98-52.49-52.27-87.87-47.05-35.38,5.22-65.62,32.48-78.15,65.98-20.04,53.58,7.7,120.38,59.8,143.99,52.11,23.62,120.62.44,147.7-49.95,30.06-55.94,9.34-124.07,7.87-187.56-.61-26.14,3.68-55.23,23.85-71.87,20.17-16.64,59.15-8.01,61.03,18.07.92,12.81-6.98,24.49-15.33,34.25-69.56,81.27-190.41,107.95-251.67,195.65-16.41,23.5-27.86,51.48-26.84,80.13s16.2,57.67,41.9,70.37c25.8,12.75,57.72,7.29,82.45-7.42s43.55-37.44,60.76-60.5c39.12-52.38,72.74-108.86,100.16-168.22,21.48-46.5,39.46-97.35,32.07-148.03-14.89,64.08-17.19,131.06-6.75,196.01,2.63,16.37,6.32,33.19,16.22,46.48,18.6,24.96,53.59,30.71,84.69,29.43,36.99-1.52,78.44-13.78,94.45-47.16,7.26-15.12,8.11-32.43,8.47-49.2,1.25-57.7-27.75-168.99-9.1-172.74s32.94,247.94,57.38,262.19c55.05,32.11,25.55-24.2,16.79-60.85.97-60.84-.98-121.72-5.82-182.38-.59-7.39,37.69-18.57,5.79-20.29s6.28-2.04,9.6-2.25c44.79-2.8,116.37-23.05,134.36,4.38s-78.46-3.6-117.71-2.64c-6.67.16-13.73.5-19.26,4.23-7.79,5.24-10.19,15.47-11.48,24.77-5.37,38.72-2.14,78.62,9.39,115.97,27.84-5.03,56.56-5.14,84.44-.35.92-4.16,1.85-8.32,2.77-12.48,8.43,29.36,17.01,59.06,32.4,85.44,15.4,26.38,38.59,49.51,67.8,58.43-.49-86.68-.98-173.35-1.47-260.03-.04-7.57-1.95-17.41-9.45-18.42,72.88,90.14,147.83,178.6,224.78,265.29-6.47-87-40.2-255.83-10.11-261.48s12.79,171.17,19.18,256.75c.62,8.28,5.89,19.62,13.45,16.19,2.93-1.33,4.42-4.55,5.68-7.51,35.64-84.27,71.28-168.54,106.92-252.8,42.04,87.5,106.13,263.9,121.94,264.45s-25.17-54.48-37.75-81.72c-3.06-6.61-6.4-13.58-12.51-17.55-6.78-4.41-15.46-4.21-23.54-3.84-38.67,1.74-77.34,3.49-116.02,5.23"/>
</svg>