<svg 
 xmlns="http://www.w3.org/2000/svg"
 xmlns:xlink="http://www.w3.org/1999/xlink"
 width="46px" height="46px">
<defs>
<linearGradient id="PSgrad_0" x1="73.135%" x2="0%" y1="0%" y2="68.2%">
  <stop offset="0%" stop-color="rgb(255,15,71)" stop-opacity="1" />
  <stop offset="100%" stop-color="rgb(255,171,150)" stop-opacity="0.99608" />
</linearGradient>

</defs>
<path fill-rule="evenodd"  fill-opacity="0.2" fill="rgb(255, 255, 255)"
 d="M23.209,0.601 C35.635,0.601 45.709,10.674 45.709,23.101 C45.709,35.527 35.635,45.601 23.209,45.601 C10.783,45.601 0.709,35.527 0.709,23.101 C0.709,10.674 10.783,0.601 23.209,0.601 Z"/>
<path fill="url(#PSgrad_0)"
 d="M23.209,0.601 C35.635,0.601 45.709,10.674 45.709,23.101 C45.709,35.527 35.635,45.601 23.209,45.601 C10.783,45.601 0.709,35.527 0.709,23.101 C0.709,10.674 10.783,0.601 23.209,0.601 Z"/>
<path fill-rule="evenodd"  fill="rgb(255, 255, 255)"
 d="M31.900,21.784 L25.085,28.599 L24.988,28.502 L23.710,29.780 L15.623,21.693 L18.451,18.864 L23.807,24.220 L29.072,18.955 L31.900,21.784 Z"/>
</svg>